# xmcd CD database file
#
# Track frame offsets:
#	150
#	18233
#	34303
#	52973
#	65979
#	81678
#	95147
#	111767
#	125324
#	143138
#	160801
#	179824
#	191035
#	207007
#
# Disc length: 2927 seconds
#
# Revision: 0
# Processed by: cddbd v1.5.2PL0 Copyright (c) Steve Scherf et al.
# Submitted via: CDex 1.70beta2
#
DISCID=d20b6d0e
DTITLE=Saloon Drifters - As We Are
DYEAR=2002
DGENRE=Country
TTITLE0=Somewhere Under The Sun
TTITLE1=A Man This Lonely
TTITLE2=Past The Point Of Rescue
TTITLE3=I Can't Be Myself
TTITLE4=A Vertical Expression
TTITLE5=The Last Horizon
TTITLE6=Livin' On Love
TTITLE7=Desperado Love
TTITLE8=Don't Close Your Eyes
TTITLE9=Union Mare And Confederate Grey
TTITLE10=Copperhead Road
TTITLE11=Today I Started
TTITLE12=Take This Job (And Shove It)
TTITLE13=Il Silenzio - The Mexican Trilogy
EXTD=YEAR: 2002
EXTT0=
EXTT1=
EXTT2=
EXTT3=
EXTT4=
EXTT5=
EXTT6=
EXTT7=
EXTT8=
EXTT9=
EXTT10=
EXTT11=
EXTT12=
EXTT13=
PLAYORDER=
